<svg xmlns="http://www.w3.org/2000/svg" id="Layer_1" data-name="Layer 1" viewBox="0 0 550.2 46.28"><defs><style>.cls-1{fill:#0095d8;}.cls-2{font-size:13.02px;font-family:ProximaNova-Regular, ProximaNova Regular;letter-spacing:0.02em;}.cls-3{letter-spacing:0.03em;}.cls-4{letter-spacing:0.03em;}.cls-5{letter-spacing:0.03em;}.cls-6{letter-spacing:0.01em;}.cls-7{letter-spacing:0.03em;}.cls-8{letter-spacing:0.02em;}</style></defs><path class="cls-1" d="M226.73,233.78a3.72,3.72,0,0,0-.6-.27,5.4,5.4,0,0,0,.79-.53,5.24,5.24,0,0,0,1.29-1.77,7.4,7.4,0,0,0,.78-3.32,7.48,7.48,0,0,0-.89-3.58,6.24,6.24,0,0,0-2.38-2.52,8.77,8.77,0,0,0-2.48-.91,18.1,18.1,0,0,0-3.36-.26h-.51l-5.2.11-5-.11-.57,0v4.77h.58l2.3-.06v18h-2.88V248h.57l5.29-.11,4.85.11H220c3,0,5.12-.46,6.56-1.4a7.56,7.56,0,0,0,2.52-2.85,8.42,8.42,0,0,0,.92-3.89,7.64,7.64,0,0,0-.87-3.61A5.69,5.69,0,0,0,226.73,233.78Zm-.17-1.23.31-.3-.31.3a3.15,3.15,0,0,1-.27.19A3.15,3.15,0,0,0,226.56,232.55Zm-3.69-6.43a5.09,5.09,0,0,1,.3.5,5.09,5.09,0,0,0-.3-.5,2.88,2.88,0,0,0-.81-.75A2.88,2.88,0,0,1,222.87,226.12Zm-5.61-.76h1.94a7.76,7.76,0,0,1,1.09,0,3.69,3.69,0,0,1,.56.1h.06a2.24,2.24,0,0,1,1.5.93,3.22,3.22,0,0,1,.58,2,3,3,0,0,1-.8,2.24h0l0,0a2.09,2.09,0,0,1-1.13.72,12.92,12.92,0,0,1-2.75.2l-1,0Zm0,10.82h2.42c2.82,0,4.13,1.1,4.13,3.47a3.36,3.36,0,0,1-1.16,2.78c-.72.59-2,.88-3.93.88h-1.46Zm8.94,9.92c-1.33.88-3.41,1.31-6.25,1.31h-.65l-4.87-.11-5.29.11h0l5.29-.11,4.87.11H220c2.84,0,4.92-.43,6.25-1.31a7,7,0,0,0,.69-.53A7,7,0,0,1,226.2,246.1Zm2.38-9.6a6.23,6.23,0,0,0-.43-.72,6.23,6.23,0,0,1,.43.72,6.86,6.86,0,0,1,.35.78A6.86,6.86,0,0,0,228.58,236.5Z" transform="translate(-65.15 -217.36)"></path><path class="cls-1" d="M248.76,220.73l-4.13-.11-.58,0v4.7l.58,0,1.64-.05v6H240V225.3l1.64.06.58,0V220.6l-.58,0-4.16.11-4.28-.11-.58,0v4.7l.59,0,1.78-.05v18.12h-2.37v4.56h4.9l4.13.07h.57v-4.64H240v-7.5h6.28v7.5h-2.22v4.56h4.78l4.24.07h.58v-4.64h-2.37v-18l1.79.06h.58V220.6l-.58,0Zm-13.22,3.91-2.36.08,2.36-.08Zm6.11,22.77h0l-4.14-.07Zm5.19-22.77-2.23.08,2.23-.08Zm6.24,22.77h0l-4.25-.07Z" transform="translate(-65.15 -217.36)"></path><path class="cls-1" d="M275.05,243.31l-4.78-18h2.46v-.57l0-3.53v-.57h-.57l-6.07.11-6.23-.11h-.58v4.67h2.46l-4.78,18h-2.35v.57l0,3.53V248h.59l4.45-.11,4.28.11h.57v-.57l0-3.54v-.57h-.58l-1.75,0,1-4.07h5.78l.95,4-1.72,0h-.58V248h.58l4.25-.11,4.22.11h.58v-4.68h-2.12Zm-2.92-22.13,0,3.54,0-3.54ZM266,227.09l1.83,7.52h-3.67Zm-2.13,20.32,0-3.53,0,3.53-4.31-.11-4.44.11h0l4.44-.11Zm5.48-8.7h-6.68l-1.25,5.21,1.25-5.21h6.68l1.22,5.17Zm7.27,8.7-4.25-.11-4.25.11h0l4.25-.11,4.25.11Z" transform="translate(-65.15 -217.36)"></path><path class="cls-1" d="M292.36,233.79h-.56v4.66h6a12,12,0,0,1-.56,1.74,4.81,4.81,0,0,1-1,1.45,7,7,0,0,1-10-.63,10.34,10.34,0,0,1-2-6.69,10.57,10.57,0,0,1,2-6.74,6.2,6.2,0,0,1,5.16-2.5,6.61,6.61,0,0,1,4.69,1.82,6,6,0,0,1,1.18,1.41,9,9,0,0,1,.72,2.13l.1.43h.44l3.54,0h.57v-4.58s0-.56,0-1.53v-.28c0-1.19.05-2.38.05-3.55v-.56h-4.56v2.16a6.81,6.81,0,0,0-.87-.76,8.59,8.59,0,0,0-2.34-1.08,9.26,9.26,0,0,0-2-.5,14.18,14.18,0,0,0-2-.15,12.09,12.09,0,0,0-9.35,4.12,15,15,0,0,0-3.68,10.33,14.07,14.07,0,0,0,3.71,10.06,12.71,12.71,0,0,0,9.59,3.91,13.25,13.25,0,0,0,7.54-2.14,11.24,11.24,0,0,0,4.46-5.94,20.51,20.51,0,0,0,.75-2.77,19.45,19.45,0,0,0,.2-3.31v-.56H292.36Zm9.76-9.27c0-1.19.05-2.37.05-3.54,0,1.17,0,2.35-.05,3.54,0,.14,0,.28,0,.42C302.11,224.8,302.12,224.66,302.12,224.52Zm-.05,5.83h0l-3.53,0ZM296.56,222a3.35,3.35,0,0,1,.42.26,6.6,6.6,0,0,1,.81.71,6.6,6.6,0,0,0-.81-.71,3.35,3.35,0,0,0-.42-.26,7.5,7.5,0,0,0-1.09-.51A7.5,7.5,0,0,1,296.56,222Zm-5.16,2.5a8,8,0,0,1,2.1.27,8,8,0,0,0-2.1-.27c-.22,0-.43,0-.64,0C291,224.52,291.18,224.52,291.4,224.52Z" transform="translate(-65.15 -217.36)"></path><path class="cls-1" d="M337.77,225.28h.57V220.6h-.58l-4.68.11-4.44-.11h-.58v4.7l.58,0,1.72-.05-3.12,13.5v.07l-.05-.22-3-13.3h2.61V220.6h-.58l-5.08.11-5.24-.11h-.58v4.68h2.5l-3.09,13.37v0l-3-13.39H314V220.6h-.58l-4.47.11-4.66-.11h-.58v4.68h2.58L312,247.55l.11.43h5.43l.09-.45L321,232.24l0,.19,3.2,15.11.1.45H330l.11-.42,5.69-22.27Zm-26.69-.57h0L314.24,239Zm16.13,17h0l-.27-1.56ZM320.49,232l-3.44,15.37L320.49,232l.25-1.29Zm9.06,15.37h-4.72l-3.21-15.12-.33-1.39-.28-2,.28,2,.33,1.39,3.21,15.12h4.72l5.8-22.7Z" transform="translate(-65.15 -217.36)"></path><path class="cls-1" d="M356.64,243.31l-5.23-18h2.69v-.57l0-3.53v-.57h-.57l-6.65.11-6.82-.11h-.57v4.67h2.68l-5.23,18h-2.57v.57l0,3.53V248h.58l4.87-.11,4.69.11H345v-.57l0-3.53v-.58h-.58l-2,0,1.07-4.07H350l1.05,4-1.94,0h-.58V248h.58l4.65-.11,4.63.11H359v-4.68h-2.33Zm-3.11-18.59h0l0-3.51ZM346.74,227l0-.14,0,.11,2,7.63h-4.12Zm-2.29,20.4,0-3.53,0,3.53-4.72-.11-4.87.11h0l4.87-.11Zm6-8.7h-7.31l-1.37,5.21h0l1.37-5.21h7.31l1.34,5.17Zm8,8.7-4.65-.11-4.65.11h0l4.65-.11,4.65.11v-3.53h0Z" transform="translate(-65.15 -217.36)"></path><path class="cls-1" d="M368,220.73l-10.16-.11h-.57v5.16l-.07,5.42v.57h.57l3.4,0h.57v-6.45h3.4v17.95h-3.67V248H362l6.18-.11L374,248h.57v-4.68h-3.6V225.36h3.3v6.4h.56l3.43,0h.57v-5.42l.07-5.2v-.58h-.58ZM357.73,231.2h0l3.4,0ZM368,221.29Zm-6,26.12h0l6.18-.11Zm12,0h0l-5.69-.1Zm.82-16.21h0l3.4,0Zm3.43-4.81v4.85h0v-4.85l.07-5.21Z" transform="translate(-65.15 -217.36)"></path><path class="cls-1" d="M385.75,220.73l-5.19-.11-.58,0v4.77h.58l2.34-.06v18.11l-2.34-.06H380V248h11.63v-4.54l-.55,0-2.29-.06v-18l2.29-.06h.55V220.6l-.57,0Zm5.3,26.68h0Zm-2.85-22.62v19.13l2.85.07-2.85-.07V224.79l2.85-.07Z" transform="translate(-65.15 -217.36)"></path><path class="cls-1" d="M428,233.79H415.64v4.66h6a11,11,0,0,1-.55,1.74,5.19,5.19,0,0,1-1,1.45,7,7,0,0,1-10-.63,10.34,10.34,0,0,1-2-6.69,10.63,10.63,0,0,1,2-6.74,6.23,6.23,0,0,1,5.17-2.5,6.63,6.63,0,0,1,4.69,1.82,6.22,6.22,0,0,1,1.18,1.41,9.55,9.55,0,0,1,.71,2.13l.11.43h.44l3.53,0h.57v-4.58c0-.05,0-.65.06-1.81s0-2.39,0-3.55v-.56H422v2.16a6.19,6.19,0,0,0-.87-.76,8.5,8.5,0,0,0-2.33-1.08,9.41,9.41,0,0,0-2-.5,14.32,14.32,0,0,0-2-.15,12.09,12.09,0,0,0-9.34,4.12,15,15,0,0,0-3.68,10.33,14.07,14.07,0,0,0,3.71,10.06,12.69,12.69,0,0,0,9.58,3.91,13.23,13.23,0,0,0,7.54-2.14,11.24,11.24,0,0,0,4.46-5.94,20.77,20.77,0,0,0,.76-2.77,20.48,20.48,0,0,0,.2-3.31ZM426,224.52c0-1.19,0-2.37,0-3.54,0,1.17,0,2.35,0,3.54v.42C426,224.8,426,224.66,426,224.52Zm-.05,5.83v0l-3.5,0Zm-9.16-9.55.19,0-.19,0a13.24,13.24,0,0,0-2-.15A13.24,13.24,0,0,1,416.76,220.8Zm-1.51,3.72a7.93,7.93,0,0,1,2.09.27,7.93,7.93,0,0,0-2.09-.27c-.22,0-.43,0-.64,0C414.82,224.52,415,224.52,415.25,224.52Zm-7.76,9.8a13.53,13.53,0,0,1,.64-4.29,14.7,14.7,0,0,0,0,8.58A13.53,13.53,0,0,1,407.49,234.32Zm7.89,9.69c-.3,0-.59,0-.87,0,.28,0,.57,0,.87,0Zm11.89-6.45a19.4,19.4,0,0,0,.19-3.21h0A19.4,19.4,0,0,1,427.27,237.56Z" transform="translate(-65.15 -217.36)"></path><path class="cls-1" d="M445.13,238.61h-.56v4.69h-8v-6.84H444v-4.71h-.57l-6.77.07v-6.47h7.54V230h.58l3.67,0H449v-4.64l0-4.15v-.58h-.58l-9.81.11-10.11-.11h-.58v4.76h.58l2.31-.06v18h-2.89V248h.58l10.2-.11,10,.11h.57v-4.55l.07-4.29v-.58h-.58Zm3.26-9.19v-4.08l0-4.16h0l0,4.16v4.08l-3.67,0Zm.34,18-10-.11-10.21.11h0l10.21-.11,10,.11Zm.07-8.27-.07,4.3.07-4.3Z" transform="translate(-65.15 -217.36)"></path><path class="cls-1" d="M492.31,238.61h-.56v4.69H484.6v-6.84h6.69v-4.71h-.57l-6.12.07v-6.47h6.77V230H492l3.34,0h.56v-4.64l0-4.15v-.58h-.57l-8.94.11-9.2-.11h-.53l-.58,0-5.11.11-4.65-.11-.58,0v4.77h.58l2.18-.06v13l-8.9-17.36-.16-.31h-.36l-4.1.11-4.63-.11-.58,0v4.77h.58l2.12-.06v18h-2.7V248h.57l5.14-.11,4.69.11h.58v-4.68H458V228.66l0,.11,9.69,18.81.16.3H474V225.34l2.12-.06h.51v.1h.58l2-.06v18H476.6V248h.57l9.29-.11,9.13.11h.57v-4.55l.06-4.29v-.58h-.58Zm3-17.43h0l0,4.16Zm-35.14,26.23h0l-4.72-.11-5.14.11h0l5.14-.11Zm8-.09-9.68-18.81-.65-1.27-.61-1.54.61,1.54.65,1.27,9.68,18.81,5.2,0Zm9,.09h0l9.3-.11Zm18.43,0-9-.1,9,.1Z" transform="translate(-65.15 -217.36)"></path><path class="cls-1" d="M541.22,243.31l-4.71-18h2.42v-.57l0-3.53v-.57h-.58l-6,.11-6.13-.11h-.58v4.67h2.42l-4.71,18H521v.11h-2.56l-3.75-8.23a7.28,7.28,0,0,0,1.93-1.14,7,7,0,0,0,1.55-2.12,8.67,8.67,0,0,0,.85-3.75,6.93,6.93,0,0,0-3.29-6.35,7.16,7.16,0,0,0-2.46-1,18.4,18.4,0,0,0-3.4-.23h-1l-5.33.11-5.07-.11-.58,0v4.77h.58l2.31-.06v18.11l-2.31-.06h-.58V248h11.67v-4.54l-.55,0-2.44-.06v-7.22h2.54l5.1,11.5.14.34h7.24l4.38-.11,4.21.11h.58v-.57l0-3.54v-.57h-.58l-1.72,0,1-4.07h5.67l.94,4-1.69,0h-.57V248h.58l4.18-.11,4.16.11h.58v-4.68h-2.09ZM517.7,231.68a7.53,7.53,0,0,0,.34-.85,7.53,7.53,0,0,1-.34.85c-.11.21-.22.41-.34.6C517.48,232.09,517.59,231.89,517.7,231.68ZM509,247.41Zm5-12.53a10.84,10.84,0,0,0,1.35-.6,10.84,10.84,0,0,1-1.35.6Zm-5.24-3.44-2.16-.09v-6h1.91a6.34,6.34,0,0,1,3.51.72,2.54,2.54,0,0,1,.93,2.24C512.91,229.66,512.48,231.43,508.72,231.44Zm12,16h-6l-5.25-11.84,5.25,11.84h6Zm11.53-20.28,1.8,7.48h-3.6Zm-2.09,20.28,0-3.53,0,3.53-4.25-.11-4.38.11h0l4.38-.11Zm5.39-8.7H529l-1.24,5.21h0l1.24-5.21h6.57l1.21,5.17Zm7.17,8.7-4.19-.11-4.19.11h0l4.19-.11,4.19.11v-3.53h0Z" transform="translate(-65.15 -217.36)"></path><path class="cls-1" d="M553,220.73l-10.16-.11h-.57v5.16l-.07,5.42v.57h.57l3.4,0h.57v-6.45h3.4v17.95h-3.67V248H547l6.18-.11L559,248h.57v-4.68h-3.6V225.36h3.29v6.4h.56l3.43,0h.58v-5.42l.07-5.2v-.58h-.58ZM542.75,231.2h0l3.39,0ZM547,247.41h0l6.18-.11Zm12,0h0l-5.7-.1Zm.82-16.21h0l3.43,0Z" transform="translate(-65.15 -217.36)"></path><path class="cls-1" d="M577.61,220.05a12.43,12.43,0,0,0-9.53,3.95,16.41,16.41,0,0,0,0,20.59,13.42,13.42,0,0,0,19,0,16.43,16.43,0,0,0,0-20.55A12.35,12.35,0,0,0,577.61,220.05Zm-6.28,8.43a10.79,10.79,0,0,0-.63,1.71A10.79,10.79,0,0,1,571.33,228.48Zm11.21,12.82a6.08,6.08,0,0,1-9.86,0,13.61,13.61,0,0,1,0-13.94,6.11,6.11,0,0,1,9.86,0,13.73,13.73,0,0,1,0,14Zm1.34-12.82a10.79,10.79,0,0,1,.63,1.71A10.79,10.79,0,0,0,583.88,228.48Z" transform="translate(-65.15 -217.36)"></path><path class="cls-1" d="M614.79,243.42h-2.28l-3.76-8.23a7.12,7.12,0,0,0,1.93-1.14,7,7,0,0,0,1.56-2.12,8.81,8.81,0,0,0,.85-3.75,6.93,6.93,0,0,0-3.3-6.35,7.19,7.19,0,0,0-2.45-1,18.52,18.52,0,0,0-3.41-.23h-1l-5.34.11-5.06-.11-.58,0v4.77h.58l2.3-.06v18.11l-2.3-.06h-.58V248h11.66v-4.54l-.55,0-2.43-.06v-7.22h2.53l5.1,11.5.15.34h7v-4.56Zm-11.77,4Zm5-12.53a9.66,9.66,0,0,0,1.35-.6,9.66,9.66,0,0,1-1.35.6Zm-5.24-3.44-2.15-.09v-6h1.9a6.38,6.38,0,0,1,3.52.72,2.56,2.56,0,0,1,.93,2.24C607,229.66,606.51,231.43,602.75,231.44Zm12,16h-6l-5.25-11.84,5.25,11.84h6Z" transform="translate(-65.15 -217.36)"></path><path class="cls-1" d="M144.52,224s-.54,11.32-6.74,15.36c0,0,6.6,6.47-2.29,19.82,0,0,.4,3.64,8.49,4h40s8-.27,11.73-10.38l5.53-17H177l-2.69,8.63H185s-.39,7.63-8.9,7.94H156.11s-7.28.81-6.47-6.2c0,0,1.48-11.32,7.55-16.85,0,0,.54-.94,9.17-1.08h36.79s2.43-10.51-9.7-10.92H157.59S147.48,216.7,144.52,224Z" transform="translate(-65.15 -217.36)"></path><path class="cls-1" d="M132,218.13H68.39l-3.24,10.52H123.9c3.76-.51,2.52,3.53,2.52,3.53-1,3.75-3.57,3.68-3.57,3.68H83.49l-8.22,27.23h50.27s8.63-.54,10.92-14.56c0,0,1.62-7.82-5.12-8.49,0,0,9.84-1.62,10.11-16.72C141.45,223.32,142.66,218.13,132,218.13Zm-8.22,29.67c-.86,4.86-4.45,4.53-4.45,4.53l-27.63,0L94,244.22h27.36C124.7,244.21,123.79,247.8,123.79,247.8Z" transform="translate(-65.15 -217.36)"></path><text class="cls-2" transform="translate(142.42 43.03) scale(0.94 1)">P<tspan class="cls-3" x="7.16" y="0">ioneer in Ultim</tspan><tspan class="cls-4" x="94" y="0">a</tspan><tspan class="cls-5" x="100.67" y="0">t</tspan><tspan class="cls-3" x="105.34" y="0">e </tspan><tspan class="cls-6" x="115.51" y="0">P</tspan><tspan class="cls-7" x="122.55" y="0">o</tspan><tspan class="cls-8" x="130.05" y="0">w</tspan><tspan class="cls-3" x="139.94" y="0">er Supply</tspan></text></svg>